# xmcd CD database file
#
# Track frame offsets:
#	150
#	16305
#	27320
#	43103
#	54580
#	70653
#	88458
#	105588
#	125105
#	143358
#	154805
#	166568
#	185393
#	203288
#	214655
#	225354
#	238183
#	265628
#
# Disc length: 4440 seconds
#
# Revision: 0
# Processed by: cddbd v1.4PL0 Copyright (c) Steve Scherf et al.
# Submitted via: CDex 1.50
#
DISCID=e7115612
DTITLE=Various Artist - Absolute Country [CD-3-3)
DYEAR=2003
DGENRE=Country
TTITLE0=Charlie Daniels Band - The devil went down to georgia
TTITLE1=Roger Miller - King of the road
TTITLE2=Roy Orbison - You got it
TTITLE3=Bobby Gentry and Glen Campbell - All i have to do is dream
TTITLE4=Alabama - Feels so right 
TTITLE5=Diamond Rio - I believe
TTITLE6=Don Mcclean - Crying
TTITLE7=Kenny Rogers - Coward of the country
TTITLE8=Olivia Newton John - I honestly  love you
TTITLE9=Freddie Fender - Befrore the next teardrop falls
TTITLE10=Skeeter Davis - The end of the world
TTITLE11=Martina Mcbride - Concrete angel
TTITLE12=Kenny Chesney - Big star
TTITLE13=Crytal Gayle - Don't it make my brown eyes blue
TTITLE14=Everly Brothers - Till i kissed  you
TTITLE15=Lyn Anderson - Rose garden
TTITLE16=Billie Jo Spears - Blanket on the ground
TTITLE17=Data
EXTD=YEAR: 2003
EXTT0=
EXTT1=
EXTT2=
EXTT3=
EXTT4=
EXTT5=
EXTT6=
EXTT7=
EXTT8=
EXTT9=
EXTT10=
EXTT11=
EXTT12=
EXTT13=
EXTT14=
EXTT15=
EXTT16=
EXTT17=
PLAYORDER=
